{"asset":{"generator":"Revit2GLTF by Conworth","version":"2.0"},"scenes":[{"nodes":[0]}],"cameras":[{"type":"perspective","perspective":{"aspectRatio":1.0,"yfov":0.7,"zfar":1000000.0,"znear":0.01}}],"nodes":[{"name":"homework(car1)","matrix":[0.30480000376701355,0.0,0.0,0.0,0.0,0.30480000376701355,0.0,0.0,0.0,0.0,0.30480000376701355,0.0,0.0,0.0,0.0,1.0],"children":[1,20]},{"name":"Imports in Families (9)","children":[2,4,6,8,10,12,14,16,18]},{"name":"Citroen 2CV 8.DWG (1)","children":[3]},{"name":"Mesh_522739-0","mesh":0,"matrix":[1.0,0.0,0.0,0.0,0.0,1.0,0.0,0.0,0.0,0.0,1.0,0.0,-20.752123796368746,-12.284337150537972,-0.032808398950131233,1.0]},{"name":"Citroen 2CV 7.DWG (1)","children":[5]},{"name":"Mesh_522726-1","mesh":1,"matrix":[1.0,0.0,0.0,0.0,0.0,1.0,0.0,0.0,0.0,0.0,1.0,0.0,-20.782974919944049,-12.278382939530971,0.0,1.0]},{"name":"Citroen 2CV 6.DWG (1)","children":[7]},{"name":"Mesh_522721-2","mesh":2,"matrix":[1.0,0.0,0.0,0.0,0.0,1.0,0.0,0.0,0.0,0.0,1.0,0.0,-20.783604920413271,-12.280476091006852,0.0,1.0]},{"name":"Citroen 2CV 5.DWG (1)","children":[9]},{"name":"Mesh_522710-3","mesh":3,"matrix":[1.0,0.0,0.0,0.0,0.0,1.0,0.0,0.0,0.0,0.0,1.0,0.0,-20.767054569284173,-12.274676691096005,0.0,1.0]},{"name":"Citroen 2CV 3.DWG (1)","children":[11]},{"name":"Mesh_522706-4","mesh":4,"matrix":[1.0,0.0,0.0,0.0,0.0,1.0,0.0,0.0,0.0,0.0,1.0,0.0,-20.784063091335383,-12.287627332998419,0.0,1.0]},{"name":"Citroen 2CV 2.DWG (1)","children":[13]},{"name":"Mesh_522695-5","mesh":5,"matrix":[1.0,0.0,0.0,0.0,0.0,1.0,0.0,0.0,0.0,0.0,1.0,0.0,-20.787139713201974,-12.2466224956569,0.0,1.0]},{"name":"Citroen 2CV 1.DWG (1)","children":[15]},{"name":"Mesh_522684-6","mesh":6,"matrix":[1.0,0.0,0.0,0.0,0.0,1.0,0.0,0.0,0.0,0.0,1.0,0.0,-20.767167532914321,-12.280934655653242,0.0,1.0]},{"name":"1-2.DXF (1)","children":[17]},{"name":"Mesh_522681-7","mesh":7,"matrix":[1.0,0.0,0.0,0.0,0.0,1.0,0.0,0.0,0.0,0.0,1.0,0.0,-20.77873483215491,-12.388039594623979,0.0,1.0]},{"name":"1-1.DXF (1)","children":[19]},{"name":"Mesh_522670-8","mesh":8,"matrix":[1.0,0.0,0.0,0.0,0.0,1.0,0.0,0.0,0.0,0.0,1.0,0.0,-20.778731106987408,-12.388039594623985,0.0,1.0]},{"name":"revit_camera","camera":0,"rotation":[0.51675083629925622,-0.16953943013916817,-0.26160477071612209,0.79736309091321156],"translation":[153.63343062483798,52.953645642951592,88.874138111103946]}],"meshes":[{"primitives":[{"attributes":{"POSITION":1,"NORMAL":2},"indices":0,"material":0,"mode":4},{"attributes":{"POSITION":4,"NORMAL":5},"indices":3,"material":1,"mode":4}]},{"primitives":[{"attributes":{"POSITION":7,"NORMAL":8},"indices":6,"material":2,"mode":4},{"attributes":{"POSITION":10,"NORMAL":11},"indices":9,"material":3,"mode":4},{"attributes":{"POSITION":13,"NORMAL":14},"indices":12,"material":4,"mode":4}]},{"primitives":[{"attributes":{"POSITION":16,"NORMAL":17},"indices":15,"material":5,"mode":4},{"attributes":{"POSITION":19,"NORMAL":20},"indices":18,"material":6,"mode":4}]},{"primitives":[{"attributes":{"POSITION":22,"NORMAL":23},"indices":21,"material":7,"mode":4}]},{"primitives":[{"attributes":{"POSITION":25,"NORMAL":26},"indices":24,"material":8,"mode":4}]},{"primitives":[{"attributes":{"POSITION":28,"NORMAL":29},"indices":27,"material":9,"mode":4}]},{"primitives":[{"attributes":{"POSITION":31,"NORMAL":32},"indices":30,"material":10,"mode":4}]},{"primitives":[{"attributes":{"POSITION":34,"NORMAL":35},"indices":33,"material":11,"mode":4}]},{"primitives":[{"attributes":{"POSITION":37,"NORMAL":38},"indices":36,"material":11,"mode":4}]}],"accessors":[{"bufferView":0,"byteOffset":0,"componentType":5123,"count":1728,"type":"SCALAR"},{"bufferView":1,"byteOffset":0,"componentType":5126,"count":367,"type":"VEC3","max":[1.6063545942306519,0.83854436874389648,5.2320375442504883],"min":[-1.632688045501709,-5.0582523345947266,3.4647302627563477]},{"bufferView":2,"byteOffset":0,"componentType":5126,"count":367,"type":"VEC3"},{"bufferView":3,"byteOffset":0,"componentType":5123,"count":103638,"type":"SCALAR"},{"bufferView":4,"byteOffset":0,"componentType":5126,"count":17817,"type":"VEC3","max":[1.7857078313827515,2.2095890045166016,5.198307991027832],"min":[-1.8120430707931519,-5.8490476608276367,1.6174216270446777]},{"bufferView":5,"byteOffset":0,"componentType":5126,"count":17817,"type":"VEC3"},{"bufferView":6,"byteOffset":0,"componentType":5123,"count":1008,"type":"SCALAR"},{"bufferView":7,"byteOffset":0,"componentType":5126,"count":170,"type":"VEC3","max":[0.68264621496200562,6.2179703712463379,1.5275565385818481],"min":[-0.68264621496200562,6.0472517013549805,1.240391731262207]},{"bufferView":8,"byteOffset":0,"componentType":5126,"count":170,"type":"VEC3"},{"bufferView":9,"byteOffset":0,"componentType":5123,"count":3552,"type":"SCALAR"},{"bufferView":10,"byteOffset":0,"componentType":5126,"count":638,"type":"VEC3","max":[1.4150725603103638,-5.8310775756835938,2.1278648376464844],"min":[-1.4154369831085205,-5.933588981628418,1.739627480506897]},{"bufferView":11,"byteOffset":0,"componentType":5126,"count":638,"type":"VEC3"},{"bufferView":12,"byteOffset":0,"componentType":5123,"count":372,"type":"SCALAR"},{"bufferView":13,"byteOffset":0,"componentType":5126,"count":64,"type":"VEC3","max":[0.70153635740280151,-5.7337522506713867,2.0588715076446533],"min":[-0.70157325267791748,-5.7852554321289063,1.7316522598266602]},{"bufferView":14,"byteOffset":0,"componentType":5126,"count":64,"type":"VEC3"},{"bufferView":15,"byteOffset":0,"componentType":5123,"count":6240,"type":"SCALAR"},{"bufferView":16,"byteOffset":0,"componentType":5126,"count":1220,"type":"VEC3","max":[2.0402278900146484,6.0901126861572266,2.7180466651916504],"min":[-2.0402276515960693,5.3612494468688965,0.89614766836166382]},{"bufferView":17,"byteOffset":0,"componentType":5126,"count":1220,"type":"VEC3"},{"bufferView":18,"byteOffset":0,"componentType":5123,"count":17649,"type":"SCALAR"},{"bufferView":19,"byteOffset":0,"componentType":5126,"count":3116,"type":"VEC3","max":[1.7816430330276489,1.7189167737960815,4.7106914520263672],"min":[-1.7816427946090698,-4.8983325958251953,3.4076828956604004]},{"bufferView":20,"byteOffset":0,"componentType":5126,"count":3116,"type":"VEC3"},{"bufferView":21,"byteOffset":0,"componentType":5123,"count":184293,"type":"SCALAR"},{"bufferView":22,"byteOffset":0,"componentType":5126,"count":31517,"type":"VEC3","max":[2.3337113857269287,6.2697944641113281,4.9447827339172363],"min":[-2.341071605682373,-6.463493824005127,0.32330009341239929]},{"bufferView":23,"byteOffset":0,"componentType":5126,"count":31517,"type":"VEC3"},{"bufferView":24,"byteOffset":0,"componentType":5123,"count":75372,"type":"SCALAR"},{"bufferView":25,"byteOffset":0,"componentType":5126,"count":13098,"type":"VEC3","max":[2.2979376316070557,5.9590368270874023,4.7526984214782715],"min":[-2.2979376316070557,-5.8684687614440918,0.0083160400390625]},{"bufferView":26,"byteOffset":0,"componentType":5126,"count":13098,"type":"VEC3"},{"bufferView":27,"byteOffset":0,"componentType":5123,"count":51786,"type":"SCALAR"},{"bufferView":28,"byteOffset":0,"componentType":5126,"count":8996,"type":"VEC3","max":[2.4570856094360352,6.2519855499267578,3.2557404041290283],"min":[-2.4570839405059814,-6.4484796524047852,0.89614737033843994]},{"bufferView":29,"byteOffset":0,"componentType":5126,"count":8996,"type":"VEC3"},{"bufferView":30,"byteOffset":0,"componentType":5123,"count":110160,"type":"SCALAR"},{"bufferView":31,"byteOffset":0,"componentType":5126,"count":18744,"type":"VEC3","max":[2.0581662654876709,6.0001716613769531,4.9081072807312012],"min":[-1.8274396657943726,-5.820462703704834,0.89614748954772949]},{"bufferView":32,"byteOffset":0,"componentType":5126,"count":18744,"type":"VEC3"},{"bufferView":33,"byteOffset":0,"componentType":5123,"count":68352,"type":"SCALAR"},{"bufferView":34,"byteOffset":0,"componentType":5126,"count":11601,"type":"VEC3","max":[0.14413008093833923,6.173377513885498,3.5164203643798828],"min":[-1.9921996593475342,2.0114786624908447,1.1724509000778198]},{"bufferView":35,"byteOffset":0,"componentType":5126,"count":11601,"type":"VEC3"},{"bufferView":36,"byteOffset":0,"componentType":5123,"count":63360,"type":"SCALAR"},{"bufferView":37,"byteOffset":0,"componentType":5126,"count":10769,"type":"VEC3","max":[1.9921978712081909,6.173377513885498,3.5074524879455566],"min":[-0.00839573796838522,2.0114786624908447,1.1724511384963989]},{"bufferView":38,"byteOffset":0,"componentType":5126,"count":10769,"type":"VEC3"}],"bufferViews":[{"buffer":0,"byteOffset":0,"byteLength":3456,"target":34963},{"buffer":0,"byteOffset":3456,"byteLength":4404,"target":34962},{"buffer":0,"byteOffset":7860,"byteLength":4404,"target":34962},{"buffer":0,"byteOffset":12264,"byteLength":207276,"target":34963},{"buffer":0,"byteOffset":219540,"byteLength":213804,"target":34962},{"buffer":0,"byteOffset":433344,"byteLength":213804,"target":34962},{"buffer":0,"byteOffset":647148,"byteLength":2016,"target":34963},{"buffer":0,"byteOffset":649164,"byteLength":2040,"target":34962},{"buffer":0,"byteOffset":651204,"byteLength":2040,"target":34962},{"buffer":0,"byteOffset":653244,"byteLength":7104,"target":34963},{"buffer":0,"byteOffset":660348,"byteLength":7656,"target":34962},{"buffer":0,"byteOffset":668004,"byteLength":7656,"target":34962},{"buffer":0,"byteOffset":675660,"byteLength":744,"target":34963},{"buffer":0,"byteOffset":676404,"byteLength":768,"target":34962},{"buffer":0,"byteOffset":677172,"byteLength":768,"target":34962},{"buffer":0,"byteOffset":677940,"byteLength":12480,"target":34963},{"buffer":0,"byteOffset":690420,"byteLength":14640,"target":34962},{"buffer":0,"byteOffset":705060,"byteLength":14640,"target":34962},{"buffer":0,"byteOffset":719700,"byteLength":35300,"target":34963},{"buffer":0,"byteOffset":755000,"byteLength":37392,"target":34962},{"buffer":0,"byteOffset":792392,"byteLength":37392,"target":34962},{"buffer":0,"byteOffset":829784,"byteLength":368588,"target":34963},{"buffer":0,"byteOffset":1198372,"byteLength":378204,"target":34962},{"buffer":0,"byteOffset":1576576,"byteLength":378204,"target":34962},{"buffer":0,"byteOffset":1954780,"byteLength":150744,"target":34963},{"buffer":0,"byteOffset":2105524,"byteLength":157176,"target":34962},{"buffer":0,"byteOffset":2262700,"byteLength":157176,"target":34962},{"buffer":0,"byteOffset":2419876,"byteLength":103572,"target":34963},{"buffer":0,"byteOffset":2523448,"byteLength":107952,"target":34962},{"buffer":0,"byteOffset":2631400,"byteLength":107952,"target":34962},{"buffer":0,"byteOffset":2739352,"byteLength":220320,"target":34963},{"buffer":0,"byteOffset":2959672,"byteLength":224928,"target":34962},{"buffer":0,"byteOffset":3184600,"byteLength":224928,"target":34962},{"buffer":0,"byteOffset":3409528,"byteLength":136704,"target":34963},{"buffer":0,"byteOffset":3546232,"byteLength":139212,"target":34962},{"buffer":0,"byteOffset":3685444,"byteLength":139212,"target":34962},{"buffer":0,"byteOffset":3824656,"byteLength":126720,"target":34963},{"buffer":0,"byteOffset":3951376,"byteLength":129228,"target":34962},{"buffer":0,"byteOffset":4080604,"byteLength":129228,"target":34962}],"buffers":[{"uri":"homework(car1).bin","byteLength":4209832}],"materials":[{"name":"Citroen 2CV 11","pbrMetallicRoughness":{"baseColorFactor":[0.0,0.0,0.0,1.0],"metallicFactor":0.0,"roughnessFactor":1.0},"doubleSided":false},{"name":"Citroen 2CV 12","pbrMetallicRoughness":{"baseColorFactor":[0.1254902,0.294117659,0.8745098,1.0],"metallicFactor":0.0,"roughnessFactor":1.0},"doubleSided":false},{"name":"Citroen 2CV 9","pbrMetallicRoughness":{"baseColorFactor":[0.5882353,0.5882353,0.5882353,1.0],"metallicFactor":0.0,"roughnessFactor":1.0},"doubleSided":false},{"name":"Citroen 2CV 10","pbrMetallicRoughness":{"baseColorFactor":[0.917647064,0.156862751,0.156862751,1.0],"metallicFactor":0.0,"roughnessFactor":1.0},"doubleSided":false},{"name":"Citroen 2CV 8","pbrMetallicRoughness":{"baseColorFactor":[0.5882353,0.5882353,0.5882353,1.0],"metallicFactor":0.0,"roughnessFactor":1.0},"doubleSided":false},{"name":"Citroen 2CV 7","pbrMetallicRoughness":{"baseColorFactor":[0.23137255,0.23137255,0.23137255,1.0],"metallicFactor":0.0,"roughnessFactor":1.0},"doubleSided":false},{"name":"Citroen 2CV 6","pbrMetallicRoughness":{"baseColorFactor":[0.172549024,0.1882353,0.243137255,1.0],"metallicFactor":0.0,"roughnessFactor":1.0},"alphaMode":"BLEND","doubleSided":true},{"name":"Citroen 2CV 5","pbrMetallicRoughness":{"baseColorFactor":[0.23137255,0.23137255,0.23137255,1.0],"metallicFactor":0.0,"roughnessFactor":1.0},"doubleSided":false},{"name":"Citroen 2CV 4","pbrMetallicRoughness":{"baseColorFactor":[0.0,0.0,0.0,1.0],"metallicFactor":0.0,"roughnessFactor":1.0},"doubleSided":false},{"name":"Citroen 2CV 3","pbrMetallicRoughness":{"baseColorFactor":[0.03529412,0.0,0.0,1.0],"metallicFactor":0.0,"roughnessFactor":1.0},"doubleSided":false},{"name":"Citroen 2CV 2","pbrMetallicRoughness":{"baseColorFactor":[0.1254902,0.294117659,0.8745098,1.0],"metallicFactor":0.0,"roughnessFactor":1.0},"doubleSided":false},{"name":"Citroen 2CV 1","pbrMetallicRoughness":{"baseColorFactor":[0.1254902,0.294117659,0.8745098,1.0],"metallicFactor":0.0,"roughnessFactor":1.0},"doubleSided":false}]}